<svg width="167" height="36" viewBox="0 0 167 36" fill="none" xmlns="http://www.w3.org/2000/svg">
<g clip-path="url(#clip0_514_646)">
<path d="M71.9822 24.0581V11.1627H76.2224C77.345 11.0799 78.4617 11.387 79.3842 12.0322C79.7469 12.351 80.0313 12.7491 80.2154 13.1955C80.3995 13.642 80.4783 14.1249 80.4456 14.6067C80.4559 15.1815 80.2752 15.7435 79.9318 16.2045C79.5707 16.6835 79.0869 17.0561 78.5316 17.2829C79.1945 17.4623 79.7774 17.8601 80.1859 18.4121C80.5947 18.9822 80.8068 19.6699 80.79 20.3712C80.8157 20.8819 80.7278 21.3919 80.5325 21.8644C80.3372 22.337 80.0395 22.7603 79.6608 23.1039C78.7579 23.8159 77.624 24.1697 76.4764 24.0976L71.9822 24.0581ZM73.676 16.6506H76.2449C76.8898 16.682 77.5247 16.4818 78.0348 16.086C78.2557 15.9 78.4311 15.6659 78.5476 15.4017C78.664 15.1375 78.7184 14.8501 78.7066 14.5615C78.7322 14.273 78.6892 13.9825 78.5813 13.7137C78.4734 13.4449 78.3035 13.2054 78.0856 13.0146C77.5259 12.6485 76.8609 12.4778 76.1941 12.529H73.676V16.6506ZM73.676 18.0169V22.6635H76.499C77.1791 22.7023 77.8488 22.4824 78.3735 22.0481C78.6045 21.8327 78.7857 21.5697 78.9047 21.2771C79.0237 20.9846 79.0775 20.6697 79.0623 20.3543C79.0623 18.7998 78.2173 18.0225 76.5273 18.0225L73.676 18.0169Z" fill="#386EEF"/>
<path d="M90.5972 18.0846H84.9963V22.6634H91.5006V24.058H83.2969V11.1626H91.4103V12.5572H84.9963V16.6957H90.5972V18.0846Z" fill="#386EEF"/>
<path d="M101.5 12.5346H95.2892V16.4077H98.5019C99.6356 16.3659 100.746 16.7348 101.63 17.4466C102.008 17.794 102.306 18.2204 102.501 18.6956C102.696 19.1708 102.784 19.6831 102.759 20.1962C102.784 20.7152 102.697 21.2335 102.502 21.7151C102.307 22.1968 102.009 22.6302 101.63 22.9853C100.757 23.7153 99.6449 24.0973 98.5075 24.058H93.5559V11.1626H101.494L101.5 12.5346ZM95.2892 17.8023V22.6634H98.4002C99.1216 22.7073 99.8313 22.466 100.376 21.9916C100.608 21.7558 100.789 21.4746 100.908 21.1657C101.026 20.8568 101.08 20.5267 101.065 20.1962C101.08 19.8776 101.028 19.5594 100.911 19.2626C100.794 18.9658 100.616 18.6971 100.388 18.4741C99.8473 18.0249 99.1587 17.7934 98.4567 17.8249L95.2892 17.8023Z" fill="#386EEF"/>
<path d="M113.221 11.1626H114.915V24.058H113.221V14.1042L106.858 24.058H105.164V11.1626H106.858V21.0939L113.221 11.1626Z" fill="#386EEF"/>
<path d="M127.957 24.058H126.263V18.0846H119.731V24.058H118.037V11.1626H119.731V16.6957H126.247V11.1626H127.94L127.957 24.058Z" fill="#386EEF"/>
<path d="M138.261 20.6761H132.847L131.633 24.0636H129.86L134.812 11.1626H136.302L141.243 24.0806H139.492L138.261 20.6761ZM133.361 19.2872H137.765L135.568 13.2403L133.361 19.2872Z" fill="#386EEF"/>
<path d="M144.687 18.9991V24.0804H142.993V11.1625H147.758C148.962 11.0918 150.148 11.479 151.078 12.2465C151.474 12.6084 151.786 13.0528 151.992 13.5483C152.198 14.0439 152.293 14.5785 152.269 15.1146C152.303 15.6545 152.214 16.1949 152.011 16.6961C151.808 17.1974 151.495 17.6467 151.095 18.011C150.127 18.751 148.923 19.1123 147.707 19.0273L144.687 18.9991ZM144.687 17.6101H147.747C148.502 17.6616 149.248 17.4301 149.842 16.9609C150.088 16.7237 150.281 16.4359 150.406 16.1171C150.53 15.7984 150.585 15.4563 150.564 15.1146C150.58 14.7726 150.523 14.4312 150.399 14.1123C150.274 13.7934 150.085 13.504 149.842 13.2628C149.292 12.7763 148.576 12.5197 147.843 12.5457H144.687V17.6101Z" fill="#386EEF"/>
<path d="M156.227 16.4077H159.44C160.587 16.3562 161.714 16.7257 162.607 17.4466C162.986 17.794 163.283 18.2204 163.478 18.6956C163.674 19.1708 163.762 19.6831 163.737 20.1962C163.762 20.7152 163.674 21.2335 163.479 21.7151C163.284 22.1968 162.987 22.6302 162.607 22.9853C161.734 23.7153 160.623 24.0973 159.485 24.058H154.539V11.1626H156.233L156.227 16.4077ZM156.227 17.8023V22.6634H159.344C160.064 22.7064 160.771 22.4651 161.314 21.9916C161.555 21.7598 161.743 21.4803 161.869 21.171C161.994 20.8618 162.054 20.5297 162.043 20.1962C162.058 19.8776 162.005 19.5594 161.889 19.2626C161.772 18.9658 161.593 18.6971 161.365 18.4741C160.825 18.0249 160.136 17.7934 159.434 17.8249L156.227 17.8023ZM167 24.058H165.306V11.1626H167V24.058Z" fill="#386EEF"/>
<path d="M46.5295 12.5346H40.3188V24.058H38.625V11.1626H46.5295V12.5346Z" fill="#2ED78D"/>
<path d="M55.9247 18.0846H50.3295V22.6634H56.8281V24.058H48.6243V11.1626H56.7434V12.5572H50.3295V16.6957H55.9247V18.0846Z" fill="#2ED78D"/>
<path d="M68.8825 18.0167C68.9079 19.1519 68.6923 20.2795 68.2501 21.3253C67.8718 22.2071 67.2413 22.9575 66.4377 23.482C65.8328 23.8739 65.1501 24.1301 64.4367 24.2329C63.7233 24.3358 62.9961 24.283 62.305 24.078C61.614 23.8731 60.9755 23.5209 60.4336 23.0457C59.8916 22.5705 59.459 21.9836 59.1655 21.3253C58.7135 20.3133 58.4862 19.2153 58.4993 18.1071V17.1981C58.4771 16.0676 58.6966 14.9453 59.143 13.9065C59.5296 13.017 60.1673 12.2596 60.9779 11.7271C61.7878 11.2151 62.7301 10.9521 63.6881 10.9706C64.6545 10.9551 65.605 11.2177 66.4264 11.7271C67.2367 12.2545 67.8716 13.0112 68.2501 13.9008C68.6891 14.9436 68.9046 16.0669 68.8825 17.1981V18.0167ZM67.1886 17.1811C67.2677 15.9377 66.9429 14.7019 66.2627 13.658C65.9673 13.2561 65.5772 12.9335 65.1271 12.7188C64.6769 12.504 64.1806 12.4039 63.6824 12.4272C63.1903 12.4075 62.701 12.5095 62.2578 12.7242C61.8146 12.9389 61.4312 13.2597 61.1417 13.658C60.4708 14.6567 60.1365 15.8436 60.1875 17.0456V17.9941C60.1175 19.2312 60.446 20.4581 61.1247 21.4946C61.4269 21.8845 61.813 22.2013 62.2545 22.4214C62.6959 22.6414 63.1813 22.7591 63.6746 22.7656C64.1678 22.7721 64.6561 22.6673 65.1032 22.459C65.5504 22.2507 65.9447 21.9442 66.257 21.5624C66.9251 20.5423 67.2513 19.3361 67.1886 18.1183V17.1811Z" fill="#2ED78D"/>
<path d="M30.7939 12.2918V23.7193C30.7495 24.6479 30.4841 25.5524 30.0195 26.3577C29.555 27.163 28.9049 27.8456 28.1233 28.349L18.2088 34.0683C17.3894 34.5113 16.4695 34.735 15.5382 34.7176C14.6069 34.735 13.6869 34.5113 12.8676 34.0683L2.95307 28.349C2.17145 27.8456 1.52134 27.163 1.05683 26.3577C0.592317 25.5524 0.326833 24.6479 0.282471 23.7193V12.2918C0.325914 11.3631 0.59101 10.4581 1.05561 9.65271C1.5202 8.8473 2.17081 8.16476 2.95307 7.66213L12.8676 1.93148C13.6869 1.48849 14.6069 1.26482 15.5382 1.28219C16.4695 1.26482 17.3894 1.48849 18.2088 1.93148L28.1233 7.65084C28.9071 8.15456 29.5586 8.83888 30.0233 9.6464C30.488 10.4539 30.7522 11.3611 30.7939 12.2918ZM29.6647 23.7306V20.2696C27.0449 23.4709 21.9408 24.3686 16.9779 25.2324C12.5853 25.9946 8.41284 26.7286 6.21086 28.9305L13.4435 33.1085C14.0971 33.4527 14.8279 33.6238 15.5664 33.6054C16.3031 33.6238 17.0321 33.4527 17.6837 33.1085L27.5643 27.3892C28.1767 26.9825 28.6865 26.4395 29.0539 25.8028C29.4212 25.1661 29.6361 24.4529 29.6816 23.7193L29.6647 23.7306ZM29.6816 18.1919V15.1148C26.2319 14.8438 24.3743 15.7867 22.0481 16.9667C18.7699 18.7662 15.1646 19.8911 11.4448 20.2752C15.0165 21.8378 18.843 22.737 22.7369 22.9288C25.8988 22.0594 28.5468 20.7326 29.7042 18.2032L29.6816 18.1919ZM29.7042 13.9969V12.2918C29.6587 11.5574 29.4438 10.8435 29.0765 10.2058C28.7092 9.5682 28.1994 9.02418 27.5869 8.6163L24.5437 6.8604L17.678 2.90823C17.0255 2.56661 16.2971 2.39569 15.5608 2.41138C14.8226 2.39572 14.0924 2.56661 13.4378 2.90823L3.50638 8.60501C2.89184 9.01338 2.38065 9.55903 2.0132 10.1989C1.64575 10.8387 1.43209 11.5553 1.3891 12.2918V17.7289C1.61495 17.7289 1.8295 17.7007 2.04969 17.695L10.7277 8.99458C10.8327 8.89448 10.9722 8.83864 11.1173 8.83864C11.2624 8.83864 11.4019 8.89448 11.5069 8.99458L17.0796 14.5502L22.8894 8.75745C22.9673 8.68244 23.0651 8.63139 23.1712 8.61037C23.2773 8.58935 23.3872 8.59925 23.4879 8.63888C23.5563 8.66416 23.6181 8.70471 23.6685 8.75745L28.8629 13.9518L29.6816 13.9856L29.7042 13.9969ZM27.3498 14.0308L23.9621 9.93181L19.4453 15.3858L20.8003 17.0175C21.4214 16.6788 21.986 16.3344 22.4942 16.0125C24.0017 15.0809 25.368 14.2397 27.3103 14.0308H27.3498ZM18.3499 17.4184L16.6561 15.7246L11.1229 10.169L3.59108 17.7063C5.60753 17.8846 7.57256 18.44 9.38396 19.3437C12.4774 19.1914 15.5269 18.5472 18.4177 17.4353L18.3499 17.4184ZM16.7973 24.1484C17.6724 23.9959 18.5419 23.8435 19.4001 23.6798C15.9974 23.1811 12.6916 22.1624 9.59851 20.6592C7.00131 19.4848 4.91226 18.5532 1.3891 18.8299V23.7193C1.4338 24.4531 1.6483 25.1666 2.01572 25.8035C2.38314 26.4403 2.89343 26.9831 3.50638 27.3892L5.20021 28.3659C7.63368 25.7405 12.0941 24.9783 16.8029 24.1371" fill="#034575"/>
<path d="M19.4 23.6683C18.5418 23.8321 17.6723 23.9845 16.7971 24.137C12.0883 24.9556 7.62787 25.7404 5.19441 28.3658L3.50058 27.389C2.88763 26.983 2.37734 26.4402 2.00992 25.8033C1.6425 25.1665 1.42799 24.453 1.3833 23.7192V18.8298C4.91211 18.5531 7.00116 19.4847 9.59836 20.659C12.6868 22.1567 15.9868 23.1716 19.383 23.6683" fill="#1FC183"/>
<path d="M28.1233 7.65084L18.2088 1.93148C17.3894 1.48849 16.4695 1.26482 15.5382 1.28219C14.6069 1.26482 13.6869 1.48849 12.8676 1.93148L2.95307 7.65084C2.1693 8.15456 1.51775 8.83888 1.05307 9.6464C0.588397 10.4539 0.324141 11.3611 0.282471 12.2918V23.7193C0.326833 24.6479 0.592317 25.5524 1.05683 26.3577C1.52134 27.163 2.17145 27.8456 2.95307 28.349L12.8676 34.0683C13.6869 34.5113 14.6069 34.735 15.5382 34.7176C16.4695 34.735 17.3894 34.5113 18.2088 34.0683L28.1233 28.349C28.9049 27.8456 29.555 27.163 30.0195 26.3577C30.4841 25.5524 30.7495 24.6479 30.7939 23.7193V12.2918C30.7522 11.3611 30.488 10.4539 30.0233 9.6464C29.5586 8.83888 28.9071 8.15456 28.1233 7.65084Z" stroke="#386EEF" stroke-miterlimit="10"/>
<path d="M28.1233 7.64519L18.2088 1.93148C17.3894 1.48849 16.4695 1.26482 15.5382 1.28219C14.6051 1.26487 13.6833 1.4885 12.8619 1.93148L2.95307 7.64519C2.16951 8.1505 1.51824 8.83595 1.05365 9.6443C0.589062 10.4527 0.324639 11.3605 0.282471 12.2918V23.7193C0.326833 24.6479 0.592317 25.5524 1.05683 26.3577C1.52134 27.163 2.17145 27.8456 2.95307 28.349L12.8619 34.0683C13.6833 34.5113 14.6051 34.7349 15.5382 34.7176C16.4695 34.735 17.3894 34.5113 18.2088 34.0683L28.1233 28.349C28.9049 27.8456 29.555 27.163 30.0195 26.3577C30.4841 25.5524 30.7495 24.6479 30.7939 23.7193V12.2918C30.7517 11.3605 30.4873 10.4527 30.0227 9.6443C29.5581 8.83595 28.9069 8.1505 28.1233 7.64519ZM3.51203 27.4061C2.89851 26.9988 2.38759 26.4551 2.01929 25.8174C1.65099 25.1798 1.43529 24.4655 1.3891 23.7306V18.8299C4.91226 18.5532 7.00131 19.4848 9.59851 20.6535C12.6828 22.1578 15.9816 23.1749 19.3775 23.6685C18.525 23.8322 17.6555 23.9846 16.7803 24.1371C12.0715 24.9557 7.61674 25.7405 5.17763 28.3659L3.51203 27.4061ZM3.58543 17.712L11.1229 10.169L18.3895 17.441C15.506 18.5445 12.4672 19.1884 9.38396 19.3493C7.57087 18.4429 5.60419 17.8837 3.58543 17.7007V17.712ZM29.6816 23.7193C29.635 24.4528 29.4203 25.1658 29.0542 25.8031C28.688 26.4405 28.1802 26.985 27.57 27.3948L17.6555 33.1085C17.0044 33.4547 16.2753 33.6277 15.5382 33.611C14.7975 33.6271 14.0649 33.4542 13.4096 33.1085L6.17698 28.9361C8.43542 26.7286 12.5853 25.9946 16.9949 25.2267C21.9578 24.3686 27.0618 23.4709 29.6816 20.2639V23.7193ZM29.6816 18.1975C28.5524 20.7213 25.8705 22.0481 22.7144 22.9175C18.8204 22.7257 14.994 21.8265 11.4222 20.2639C15.142 19.8798 18.7473 18.7549 22.0255 16.9554C24.3517 15.7698 26.2149 14.8325 29.659 15.1035L29.6816 18.1975ZM19.4679 15.3745L23.9847 9.92052L27.3724 14.0195C25.4245 14.2284 24.0581 15.0753 22.5506 16.0012C22.0255 16.3231 21.4609 16.6675 20.8568 17.0062L19.4679 15.3745ZM29.6816 13.9856L28.8629 13.9518L23.6742 8.75745C23.6185 8.70716 23.5557 8.66531 23.4879 8.63324C23.3875 8.59549 23.2784 8.58712 23.1734 8.60912C23.0684 8.63112 22.9718 8.68257 22.895 8.75745L17.0796 14.5502L11.5125 8.97764C11.4075 8.87754 11.268 8.82171 11.1229 8.82171C10.9779 8.82171 10.8384 8.87754 10.7334 8.97764L2.04405 17.6837L1.3891 17.7176V12.2918C1.43487 11.5568 1.65038 10.8424 2.01872 10.2047C2.38706 9.56692 2.89821 9.02324 3.51203 8.6163L13.4096 2.89129C14.0649 2.54562 14.7975 2.37268 15.5382 2.3888C16.2753 2.3721 17.0044 2.54513 17.6555 2.89129L24.5211 6.84347L27.57 8.59936C28.183 9.01019 28.6926 9.55731 29.059 10.1979C29.4253 10.8385 29.6384 11.5552 29.6816 12.2918V13.9856Z" fill="#386EEF"/>
</g>
<defs>
<clipPath id="clip0_514_646">
<rect width="167" height="36" fill="white"/>
</clipPath>
</defs>
</svg>
