<svg width="37" height="21" viewBox="0 0 37 21" fill="none" xmlns="http://www.w3.org/2000/svg">
<path d="M34.6875 0H2.3125C1.036 0 0 0.672 0 1.5C0 2.328 1.036 3 2.3125 3H34.6875C35.964 3 37 2.328 37 1.5C37 0.672 35.964 0 34.6875 0Z" fill="black"/>
<path d="M35.4583 9H1.54167C0.690667 9 0 9.672 0 10.5C0 11.328 0.690667 12 1.54167 12H35.4583C36.3093 12 37 11.328 37 10.5C37 9.672 36.3093 9 35.4583 9Z" fill="black"/>
<path d="M34.6875 18H2.3125C1.036 18 0 18.672 0 19.5C0 20.328 1.036 21 2.3125 21H34.6875C35.964 21 37 20.328 37 19.5C37 18.672 35.964 18 34.6875 18Z" fill="black"/>
</svg>
